<svg xmlns="http://www.w3.org/2000/svg" xlink="http://www.w3.org/1999/xlink" width="0" height="0" style="display:none;"><symbol id="w-page-icon-back-example"><defs><style type="text/css"/></defs><path d="M232.727273 0h558.545454a232.727273 232.727273 0 0 1 232.727273 232.727273v558.545454a232.727273 232.727273 0 0 1-232.727273 232.727273H232.727273a232.727273 232.727273 0 0 1-232.727273-232.727273V232.727273a232.727273 232.727273 0 0 1 232.727273-232.727273z m438.178909 711.819636L471.086545 512l199.819637-199.819636L605.090909 246.365091 339.456 512 605.090909 777.634909l65.815273-65.815273z" p-id="13119" fill="#1296db"/></symbol><symbol id="w-page-icon-option"><defs><style type="text/css"/></defs><path d="M831.84 610.176l-42.368 0c-6.88 24.928-16.736 48.576-29.376 70.496l39.168 39.136c25.056 25.056 25.056 65.696 0 90.752l-22.688 22.688c-25.056 25.056-65.696 25.056-90.752 0l-39.424-39.392c-21.856 12.448-45.408 22.144-70.208 28.896l0 41.088c0 35.424-28.704 64.16-64.16 64.16l-32.064 0c-35.424 0-64.192-28.704-64.192-64.16l0-41.088c-24.768-6.752-48.352-16.48-70.208-28.896l-39.392 39.392c-25.024 25.056-65.664 25.056-90.72 0l-22.72-22.688c-25.056-25.056-25.056-65.696 0-90.752l39.168-39.136c-12.64-21.952-22.496-45.568-29.408-70.496l-42.336 0c-35.456 0-64.16-28.704-64.16-64.128l0-32.096c0-35.424 28.704-64.16 64.16-64.16l41.856 0c6.624-24.672 16.096-48.16 28.384-69.952l-37.664-37.632c-25.056-25.056-25.056-65.696 0-90.752l22.688-22.656c25.056-25.056 65.696-25.056 90.72 0l36.896 36.896c22.592-13.152 46.976-23.392 72.704-30.4l0-43.136c0.032-35.456 28.8-64.16 64.224-64.16l32.064 0c35.424 0 64.16 28.704 64.16 64.16l0 43.104c25.792 7.04 50.144 17.28 72.704 30.432l36.896-36.896c25.056-25.056 65.696-25.056 90.752 0l22.688 22.656c25.056 25.056 25.056 65.696 0 90.752l-37.632 37.632c12.288 21.792 21.76 45.28 28.416 69.984l41.856 0c35.424 0 64.16 28.736 64.16 64.16l0 32.096c-0.032 35.392-28.736 64.096-64.192 64.096zM496 354.56c-97.44 0-176.448 79.008-176.448 176.448s79.008 176.448 176.448 176.448 176.448-79.008 176.448-176.448-79.008-176.448-176.448-176.448zM496 609.184c-44.288 0-80.224-35.872-80.224-80.192 0-44.288 35.936-80.192 80.224-80.192s80.192 35.904 80.192 80.192c0 44.32-35.904 80.192-80.192 80.192z" p-id="2393" fill="#1296db"/></symbol><symbol id="w-page-icon-start"><defs><style type="text/css"/></defs><path d="M810.666667 896H213.333333c-46.933333 0-85.333333-38.4-85.333333-85.333333V213.333333c0-46.933333 38.4-85.333333 85.333333-85.333333h597.333334c46.933333 0 85.333333 38.4 85.333333 85.333333v597.333334c0 46.933333-38.4 85.333333-85.333333 85.333333z" fill="#F44336" p-id="4613"/><path d="M661.333333 512l-234.666666-170.666667v341.333334z" fill="#FFFFFF" p-id="4614"/></symbol><symbol id="w-page-icon-top"><defs><style type="text/css"/></defs><path d="M752.736 431.063C757.159 140.575 520.41 8.97 504.518 0.41V0l-0.45 0.205-0.41-0.205v0.41c-15.934 8.56-252.723 140.165-248.259 430.653-48.21 31.457-98.713 87.368-90.685 184.074 8.028 96.666 101.007 160.768 136.601 157.287 35.595-3.482 25.232-30.31 25.232-30.31l12.206-50.095s52.47 80.569 69.304 80.528c15.114-1.23 87-0.123 95.6 0h0.82c8.602-0.123 80.486-1.23 95.6 0 16.794 0 69.305-80.528 69.305-80.528l12.165 50.094s-10.322 26.83 25.272 30.31c35.595 3.482 128.574-60.62 136.602-157.286 8.028-96.665-42.475-152.617-90.685-184.074z m-248.669-4.26c-6.758-0.123-94.781-3.359-102.891-107.192 2.95-98.714 95.97-107.438 102.891-107.93 6.964 0.492 99.943 9.216 102.892 107.93-8.11 103.833-96.174 107.07-102.892 107.192z m-52.019 500.531c0 11.838-9.42 21.382-21.012 21.382a21.217 21.217 0 0 1-21.054-21.34V821.74c0-11.797 9.421-21.382 21.054-21.382 11.591 0 21.012 9.585 21.012 21.382v105.635z m77.333 57.222a21.504 21.504 0 0 1-21.34 21.626 21.504 21.504 0 0 1-21.34-21.626V827.474c0-11.96 9.543-21.668 21.299-21.668 11.796 0 21.38 9.708 21.38 21.668v157.082z m71.147-82.043c0 11.796-9.42 21.34-21.053 21.34a21.217 21.217 0 0 1-21.013-21.34v-75.367c0-11.755 9.421-21.299 21.013-21.299 11.632 0 21.053 9.544 21.053 21.3v75.366z" fill="" p-id="3415"/></symbol></svg>