<svg xmlns="http://www.w3.org/2000/svg" xlink="http://www.w3.org/1999/xlink" width="0" height="0" style="display:none;"><symbol id="w-callback-icon-pause"><defs><style type="text/css"/></defs><path d="M333.340459 333.319481l133.939525 0 0 357.357967L333.340459 690.677449 333.340459 333.319481zM556.716946 690.678472l133.983527 0L690.700473 333.319481 556.716946 333.319481 556.716946 690.678472zM958.70846 243.88252l0 536.102954c0 98.730629-79.971379 178.744987-178.700985 178.744987L243.903497 958.730461c-98.642624 0-178.61298-80.013335-178.61298-178.744987L65.290517 243.88252c0-98.644671 79.969333-178.615027 178.61298-178.615027l536.105001 0C878.73708 65.267493 958.70846 145.236825 958.70846 243.88252zM869.44546 288.643979c0-74.080206-60.119239-134.069485-134.113487-134.069485L288.667004 154.574494c-74.082252 0-134.071532 59.989279-134.071532 134.069485l0 446.709995c0 73.994248 59.989279 134.069485 134.071532 134.069485l446.664969 0c73.994248 0 134.113487-60.075237 134.113487-134.069485L869.44546 288.643979z" p-id="5337"/></symbol><symbol id="w-callback-icon-start"><defs><style type="text/css"/></defs><path d="M810.666667 896H213.333333c-46.933333 0-85.333333-38.4-85.333333-85.333333V213.333333c0-46.933333 38.4-85.333333 85.333333-85.333333h597.333334c46.933333 0 85.333333 38.4 85.333333 85.333333v597.333334c0 46.933333-38.4 85.333333-85.333333 85.333333z" fill="#F44336" p-id="4613"/><path d="M661.333333 512l-234.666666-170.666667v341.333334z" fill="#FFFFFF" p-id="4614"/></symbol></svg>