<?xml version="1.0" standalone="no"?><!DOCTYPE svg PUBLIC "-//W3C//DTD SVG 1.1//EN" "http://www.w3.org/Graphics/SVG/1.1/DTD/svg11.dtd"><svg t="1532593677744" class="icon" style="" viewBox="0 0 1024 1024" version="1.1" xmlns="http://www.w3.org/2000/svg" p-id="8781" xmlns:xlink="http://www.w3.org/1999/xlink" width="200" height="200"><defs><style type="text/css"></style></defs><path d="M638.238123 372.44764c-55.902194 0-19.446911-94.093005-19.446911-94.093005l-0.12075 0.134053c16.712637-38.926568 9.251711-85.760223-22.531156-117.54309-41.661865-41.632189-109.202121-41.632189-150.888546 0L167.746492 438.451914c-19.993357 20.006659-31.228235 47.134507-31.228235 75.426877 0 28.30158 11.234879 55.43045 31.228235 75.461669l277.503245 277.499152c20.844747 20.812001 48.15372 31.224142 75.452459 31.224142 27.28646 0 54.614875-10.412141 75.436086-31.224142 31.762401-31.757285 39.231513-78.503958 22.594601-117.418246l0.057305 0.071631c0 0-36.45426-94.155427 19.447934-94.155427l126.925784 2.717901c67.400063 9.377578 125.729539-44.567032 125.729539-144.163377l0 0c0-96.717785-63.396889-152.390759-125.728516-144.029324L638.238123 372.44764zM765.162884 366.695636" p-id="8782"></path></svg>