<svg xmlns="http://www.w3.org/2000/svg" xlink="http://www.w3.org/1999/xlink" width="0" height="0" style="display:none;"><symbol id="w-page-icon-back-example"><defs><style type="text/css"/></defs><path d="M232.727273 0h558.545454a232.727273 232.727273 0 0 1 232.727273 232.727273v558.545454a232.727273 232.727273 0 0 1-232.727273 232.727273H232.727273a232.727273 232.727273 0 0 1-232.727273-232.727273V232.727273a232.727273 232.727273 0 0 1 232.727273-232.727273z m438.178909 711.819636L471.086545 512l199.819637-199.819636L605.090909 246.365091 339.456 512 605.090909 777.634909l65.815273-65.815273z" p-id="13119" fill="#1296db"/></symbol><symbol id="w-page-icon-option"><defs><style type="text/css"/></defs><path d="M831.84 610.176l-42.368 0c-6.88 24.928-16.736 48.576-29.376 70.496l39.168 39.136c25.056 25.056 25.056 65.696 0 90.752l-22.688 22.688c-25.056 25.056-65.696 25.056-90.752 0l-39.424-39.392c-21.856 12.448-45.408 22.144-70.208 28.896l0 41.088c0 35.424-28.704 64.16-64.16 64.16l-32.064 0c-35.424 0-64.192-28.704-64.192-64.16l0-41.088c-24.768-6.752-48.352-16.48-70.208-28.896l-39.392 39.392c-25.024 25.056-65.664 25.056-90.72 0l-22.72-22.688c-25.056-25.056-25.056-65.696 0-90.752l39.168-39.136c-12.64-21.952-22.496-45.568-29.408-70.496l-42.336 0c-35.456 0-64.16-28.704-64.16-64.128l0-32.096c0-35.424 28.704-64.16 64.16-64.16l41.856 0c6.624-24.672 16.096-48.16 28.384-69.952l-37.664-37.632c-25.056-25.056-25.056-65.696 0-90.752l22.688-22.656c25.056-25.056 65.696-25.056 90.72 0l36.896 36.896c22.592-13.152 46.976-23.392 72.704-30.4l0-43.136c0.032-35.456 28.8-64.16 64.224-64.16l32.064 0c35.424 0 64.16 28.704 64.16 64.16l0 43.104c25.792 7.04 50.144 17.28 72.704 30.432l36.896-36.896c25.056-25.056 65.696-25.056 90.752 0l22.688 22.656c25.056 25.056 25.056 65.696 0 90.752l-37.632 37.632c12.288 21.792 21.76 45.28 28.416 69.984l41.856 0c35.424 0 64.16 28.736 64.16 64.16l0 32.096c-0.032 35.392-28.736 64.096-64.192 64.096zM496 354.56c-97.44 0-176.448 79.008-176.448 176.448s79.008 176.448 176.448 176.448 176.448-79.008 176.448-176.448-79.008-176.448-176.448-176.448zM496 609.184c-44.288 0-80.224-35.872-80.224-80.192 0-44.288 35.936-80.192 80.224-80.192s80.192 35.904 80.192 80.192c0 44.32-35.904 80.192-80.192 80.192z" p-id="2393" fill="#1296db"/></symbol></svg>