<svg xmlns="http://www.w3.org/2000/svg" xlink="http://www.w3.org/1999/xlink" width="0" height="0" style="display:none;"><symbol id="w-playback-icon-pause"><defs><style type="text/css"/></defs><path d="M333.340459 333.319481l133.939525 0 0 357.357967L333.340459 690.677449 333.340459 333.319481zM556.716946 690.678472l133.983527 0L690.700473 333.319481 556.716946 333.319481 556.716946 690.678472zM958.70846 243.88252l0 536.102954c0 98.730629-79.971379 178.744987-178.700985 178.744987L243.903497 958.730461c-98.642624 0-178.61298-80.013335-178.61298-178.744987L65.290517 243.88252c0-98.644671 79.969333-178.615027 178.61298-178.615027l536.105001 0C878.73708 65.267493 958.70846 145.236825 958.70846 243.88252zM869.44546 288.643979c0-74.080206-60.119239-134.069485-134.113487-134.069485L288.667004 154.574494c-74.082252 0-134.071532 59.989279-134.071532 134.069485l0 446.709995c0 73.994248 59.989279 134.069485 134.071532 134.069485l446.664969 0c73.994248 0 134.113487-60.075237 134.113487-134.069485L869.44546 288.643979z" p-id="5337"/></symbol><symbol id="w-playback-icon-restart"><defs><style type="text/css"/></defs><path d="M707.584 389.312c-12.928-6.08-18.88-14.272-17.728-24.576s5.504-18.432 13.12-24.576c2.304-1.536 9.728-7.424 22.272-17.664 12.544-10.304 28.032-22.656 46.272-37.12-32-36.544-70.144-65.28-114.304-86.208-44.096-20.864-92.096-31.36-143.936-31.36-48 0-92.992 8.96-134.912 26.816-41.92 17.92-78.528 42.432-109.76 73.664-31.232 31.168-55.808 67.712-73.728 109.568s-26.88 86.784-26.88 134.72c0 47.168 8.96 91.712 26.88 133.568s42.496 78.4 73.728 109.568c31.232 31.232 67.84 55.744 109.76 73.6s86.848 26.816 134.912 26.816c39.616 0 77.184-6.272 112.576-18.816 35.456-12.544 67.84-30.272 97.152-53.056 29.312-22.848 54.464-49.664 75.456-80.512 20.928-30.848 36.416-64.512 46.272-101.056 5.312-17.472 15.232-31.936 29.696-43.392 14.464-11.392 31.616-17.152 51.456-17.152 23.616 0 43.648 8.384 60.032 25.152 16.384 16.704 24.576 36.544 24.576 59.328 0 10.624-1.92 20.928-5.696 30.848-16 53.248-39.616 102.336-70.848 147.264s-68.416 83.52-111.488 115.84c-43.072 32.32-90.88 57.664-143.488 75.904-52.544 18.368-107.776 27.52-165.696 27.52-70.848 0-137.536-13.312-200.064-39.936-62.464-26.624-116.8-63.168-162.88-109.568s-82.688-100.672-109.76-162.688c-27.072-62.016-40.576-128.448-40.576-199.232s13.504-137.344 40.576-199.808c27.072-62.4 63.616-116.608 109.76-162.688 46.08-46.016 100.416-82.56 162.88-109.568s129.152-40.512 200.064-40.512c78.528 0 151.296 16.192 218.368 48.512s124.224 76.288 171.456 131.84c17.536-12.928 32.192-24.192 44.032-33.664 11.84-9.536 19.264-15.424 22.272-17.728 4.608-3.776 9.536-6.656 14.848-8.576s10.304-1.92 14.848 0c4.544 1.92 8.576 5.888 12.032 11.968s5.888 15.232 7.424 27.392c0.768 6.848 1.536 18.432 2.304 34.816s1.536 35.392 2.304 57.088c0.768 21.696 1.152 44.16 1.152 67.328 0 23.232-0.384 45.12-1.152 65.664-0.768 25.856-6.848 44.544-18.304 55.936-6.144 6.144-15.296 9.6-27.456 10.368-12.224 0.768-25.152-0.384-38.848-3.456-20.608-4.544-43.264-9.472-68.032-14.848-24.768-5.312-48.384-10.816-70.848-16.576-22.464-5.696-42.304-11.072-59.456-16-17.152-4.864-28.032-8.512-32.64-10.752l0 0 0 0z" p-id="1371"/></symbol><symbol id="w-playback-icon-reverse"><defs><style type="text/css"/></defs><path d="M734.56 576.032a29.344 29.344 0 0 1 17.44 4.736c7.68 4.928 12.832 12.896 14.944 21.728a38.56 38.56 0 0 1-3.2 26.88l-96 120.832c-8.864 17.024-28.448 22.848-43.744 13.024s-20.544-31.584-11.712-48.608l54.4-68.48H291.104a35.072 35.072 0 1 1 0-70.144h441.856l1.632 0.032zM289.44 448a29.344 29.344 0 0 1-17.44-4.736 35.264 35.264 0 0 1-14.944-21.728 38.56 38.56 0 0 1 3.2-26.88l96.032-120.832c8.832-17.024 28.416-22.848 43.712-13.024 15.296 9.824 20.544 31.584 11.712 48.608l-54.4 68.48h375.616a35.072 35.072 0 1 1 0 70.144H291.072l-1.6-0.032zM64 127.68C64 92.512 92.8 64 127.712 64H896.32C931.488 64 960 92.8 960 127.712V896.32c0 35.2-28.8 63.712-63.712 63.712H127.68C92.512 960 64 931.2 64 896.288V127.68z m64 32.32v703.936A32 32 0 0 0 160 896h704a32 32 0 0 0 32-32V160a32 32 0 0 0-32-32H160a32 32 0 0 0-32 32z" fill="#333333" p-id="3685"/></symbol><symbol id="w-playback-icon-start"><defs><style type="text/css"/></defs><path d="M810.666667 896H213.333333c-46.933333 0-85.333333-38.4-85.333333-85.333333V213.333333c0-46.933333 38.4-85.333333 85.333333-85.333333h597.333334c46.933333 0 85.333333 38.4 85.333333 85.333333v597.333334c0 46.933333-38.4 85.333333-85.333333 85.333333z" fill="#F44336" p-id="4613"/><path d="M661.333333 512l-234.666666-170.666667v341.333334z" fill="#FFFFFF" p-id="4614"/></symbol></svg>